# xmcd
#
# Track frame offsets:
#	150
#	2486
#	6056
#
# Disc length: 265 seconds
#
# Revision: 0
# Processed by: cddbd v1.5.2PL0 Copyright (c) Steve Scherf et al.
# Submitted via: EZCDAudioConverter 7.1.0.1
#
DISCID=10010703
DTITLE=潘玮柏 - 国王的新嘻哈
DYEAR=2007
DGENRE=
TTITLE0=国王的新嘻哈(不插电版)
TTITLE1=国王的新嘻哈(嘻哈版)
TTITLE2=玩酷
EXTD=
EXTT0=
EXTT1=
EXTT2=
PLAYORDER=
